<?xml version="1.0" encoding="UTF-8"?>
<svg version="1.1" xmlns="http://www.w3.org/2000/svg" width="1408" height="768">
<path d="M0 0 C464.64 0 929.28 0 1408 0 C1408 253.44 1408 506.88 1408 768 C943.36 768 478.72 768 0 768 C0 514.56 0 261.12 0 0 Z " fill="#FEFEFE" transform="translate(0,0)"/>
<path d="M0 0 C5.41078725 0.3864848 8.33786279 1.98908781 12 6 C12.82292627 12.40721687 10.65220049 17.63504959 8.421875 23.578125 C8.05402893 24.58534607 7.68618286 25.59256714 7.30718994 26.63031006 C6.13195882 29.84084446 4.94130008 33.04539798 3.75 36.25 C2.96380964 38.3889431 2.17864303 40.52826279 1.39453125 42.66796875 C-0.05910244 46.63030148 -1.51866724 50.5903319 -2.98535156 54.54785156 C-4.39217698 58.35118973 -5.79641062 62.1554399 -7.19140625 65.96313477 C-7.51343018 66.8409108 -7.8354541 67.71868683 -8.16723633 68.62306213 C-9.21265958 71.60698927 -10.02605269 74.61072393 -10.75 77.6875 C-11.11351562 79.20923828 -11.11351562 79.20923828 -11.484375 80.76171875 C-11.65453125 81.50035156 -11.8246875 82.23898437 -12 83 C-11.62230469 82.59910156 -11.24460937 82.19820313 -10.85546875 81.78515625 C-6.50391428 77.29092786 -1.85300363 73.32834637 3.01953125 69.41015625 C5.09937021 67.72829434 7.15732832 66.03501489 9.19921875 64.30859375 C9.72942627 63.86104736 10.25963379 63.41350098 10.8059082 62.95239258 C12.29655973 61.69135751 13.78505925 60.42777988 15.2734375 59.1640625 C21.87837629 53.92174718 21.87837629 53.92174718 25.6875 54.1875 C28 55 28 55 30 57 C30.58905048 61.29165349 30.24773381 63.53870255 28.1875 67.375 C24.63808932 71.84904707 20.07905268 75.19806445 15.61474609 78.70849609 C12.62827996 81.09712716 9.72473687 83.58437545 6.8125 86.0625 C6.23564453 86.55202148 5.65878906 87.04154297 5.06445312 87.54589844 C3.7088948 88.69639357 2.35433332 89.84806307 1 91 C4.16652349 103.08238108 4.16652349 103.08238108 10 114 C12.04145582 114.63488714 12.04145582 114.63488714 14 115 C19.16381286 108.70105951 23.48933673 102.17073719 27.5625 95.125 C28.10068359 94.20847656 28.63886719 93.29195313 29.19335938 92.34765625 C32.48230769 86.71963638 35.6099677 81.03241727 38.60253906 75.2409668 C40.49764582 72.20197572 42.96645084 70.8201295 46 69 C47.01691264 67.00854609 48.01642648 65.00812926 49 63 C52.10495704 59.85297037 55.17204781 57.26113603 59.625 56.625 C64.30366647 57.14485183 67.38710894 59.0418973 71 62 C75.39269757 67.63166355 76.19166332 72.22671308 76.5625 79.1875 C76.60568359 79.93708984 76.64886719 80.68667969 76.69335938 81.45898438 C76.79922685 83.30578375 76.9000976 85.15286834 77 87 C83.58138602 85.36873708 83.58138602 85.36873708 88.37890625 80.9296875 C89.38350085 78.31521954 90.19725287 75.68315478 91 73 C93.46672539 66.60419084 95.87064755 60.50580327 100 55 C104.4701308 55.17192811 106.39182775 55.34621483 109.5 58.6875 C111.86840353 63.91772446 110.15429583 67.77138651 108.22265625 72.93359375 C107.50825498 74.77043695 106.78804068 76.60502822 106.0625 78.4375 C101.36234683 89.36624795 101.36234683 89.36624795 100 101 C107.80467306 92.84297149 114.64098522 84.12092996 121.41601562 75.10253906 C123.83964116 71.88548248 126.293251 68.69178954 128.75 65.5 C129.94882812 63.93765625 129.94882812 63.93765625 131.171875 62.34375 C133.74265506 59.04787813 133.74265506 59.04787813 136.6875 58.5 C140.89949506 59.13577284 142.39909966 60.43614259 144.92578125 63.78515625 C147.07640069 68.21934251 145.94695001 72.3234424 145 77 C144.84611816 77.76119141 144.69223633 78.52238281 144.53369141 79.30664062 C143.52632149 84.24686686 142.46731054 89.17300866 141.35131836 94.08984375 C140.90955636 96.16805275 140.90955636 96.16805275 141 99 C148.2552554 94.2768681 152.50889644 90.17281054 155.625 82.1875 C159.8353976 71.40615843 165.90690781 60.86216564 177 56 C182.19318116 55.08891559 185.64246064 56.43580016 190.203125 58.734375 C192.40432333 60.28478426 193.62749631 61.67793937 195 64 C196.54131761 72.94241928 193.78587529 78.8633973 188.9375 86.0625 C184.32835585 91.28524539 177.54449289 95.31118042 170.9375 97.375 C167.91269391 98.66140474 167.91269391 98.66140474 167.1328125 100.96484375 C166.08128574 105.29338883 165.77159959 109.54619208 166 114 C178.71813127 109.12922632 188.76006112 100.10597023 197.4609375 89.796875 C199.51912836 87.39391105 201.72959143 85.20160831 204 83 C204.99 83.33 205.98 83.66 207 84 C205.48958096 95.20227452 196.28137769 105.87133473 189 114 C188.41476562 114.66773438 187.82953125 115.33546875 187.2265625 116.0234375 C181.59624689 122.07668761 174.0790952 127.52084008 165.6875 128.3125 C160.22177828 127.84930324 157.40134454 125.51812325 153.75 121.5625 C150.12036734 116.24768074 149.52025809 111.28417007 149 105 C148.31292969 105.69867188 147.62585937 106.39734375 146.91796875 107.1171875 C146.01691406 108.02726562 145.11585938 108.93734375 144.1875 109.875 C143.29417969 110.77992188 142.40085937 111.68484375 141.48046875 112.6171875 C139 115 139 115 136 117 C135.07765508 119.71942985 134.31694442 122.34718582 133.625 125.125 C133.18532691 126.78301265 132.74388922 128.44055827 132.30078125 130.09765625 C132.08115723 130.9292627 131.8615332 131.76086914 131.63525391 132.61767578 C117.02963161 187.39156599 117.02963161 187.39156599 97.7421875 200.5390625 C93.15171109 202.89028213 89.10084324 203.55419596 84.0078125 202.67578125 C79.01828564 200.99642688 76.27415785 196.49082295 74 192 C71.94157088 175.47202501 78.79174995 161.89586218 88.2734375 148.87890625 C90.45059407 146.18610734 92.69115046 143.5804789 95 141 C95.76570312 140.12601563 96.53140625 139.25203125 97.3203125 138.3515625 C108.58176692 125.63948006 108.58176692 125.63948006 113.53515625 122.28125 C116.67664815 119.37375195 117.59222566 116.38335757 118.6875 112.375 C118.89463623 111.66730469 119.10177246 110.95960938 119.31518555 110.23046875 C120.84780911 104.88181345 122.11489065 99.49560432 123 94 C122.56171875 94.64324219 122.1234375 95.28648437 121.671875 95.94921875 C117.69125656 101.62079095 113.48760565 106.89139771 108.8125 112 C108.31395508 112.55131592 107.81541016 113.10263184 107.30175781 113.6706543 C104.45965376 116.72473588 101.77942445 119.19490176 98 121 C93.58690078 121 91.61544877 120.50603566 88.1875 117.6875 C84.24988969 112.84986448 83.72304612 109.43335409 83.875 103.25 C83.88402344 102.55261719 83.89304687 101.85523438 83.90234375 101.13671875 C83.92580112 99.42433042 83.96166896 97.71211996 84 96 C80.11541613 96.57378403 76.56965185 97.33203768 73 99 C71.624804 101.14422008 71.20462932 102.98616281 70.6484375 105.46484375 C68.28786588 114.69382555 61.46884712 121.63455562 53.5625 126.5 C48.32822794 127.52132138 43.70698373 126.70287565 38.8125 124.6875 C34.49410949 120.56103796 32.39847013 115.40931561 30 110 C29.34644531 111.17755859 29.34644531 111.17755859 28.6796875 112.37890625 C19.74427965 128.1415846 19.74427965 128.1415846 13 131 C8.92366703 131.63409624 7.17279095 131.09256658 3.5 129.125 C-4.43920337 122.8783301 -8.04191015 111.95482739 -12 103 C-17.34668425 109.81053373 -22.60159681 116.52271457 -27 124 C-29.93785297 123.67357189 -31.81876259 123.1175594 -34.3125 121.5 C-37.16230388 117.27806833 -36.3444078 112.26751111 -35.60522461 107.40087891 C-35.05950448 104.60734191 -34.45156367 101.83615841 -33.8125 99.0625 C-33.58546387 98.05396973 -33.35842773 97.04543945 -33.12451172 96.00634766 C-29.99499918 82.32689583 -26.10461542 69.0170319 -21.57983398 55.73681641 C-20.00600315 51.10160197 -18.5346914 46.46949308 -17.23803711 41.74951172 C-14.98387544 33.56255648 -12.06902006 25.70468088 -8.9375 17.8125 C-8.51364014 16.73645508 -8.08978027 15.66041016 -7.65307617 14.55175781 C-5.52795116 9.29349416 -3.40240099 4.54963088 0 0 Z " fill="#060605" transform="translate(880,307)"/>
<path d="M0 0 C10.25040523 6.28712743 14.87375631 14.10218802 17.88061523 25.57666016 C24.55493847 56.75429463 9.01081149 90.71214133 -7.19726562 116.57373047 C-9.98585379 120.84018573 -13.12596437 124.71977808 -16.484375 128.54296875 C-16.95875 129.15914062 -17.433125 129.7753125 -17.921875 130.41015625 C-24.77409244 139.17009332 -35.45528817 146.41280216 -46.484375 148.54296875 C-57.45259304 149.25323941 -66.68219787 148.58471045 -75.484375 141.54296875 C-86.00045455 131.4583181 -89.44807603 117.92205448 -89.77685547 103.79638672 C-90.0455362 71.0369972 -77.96131178 37.45755621 -54.87207031 13.94335938 C-54.41413086 13.48123047 -53.95619141 13.01910156 -53.484375 12.54296875 C-52.65679688 11.7025 -51.82921875 10.86203125 -50.9765625 9.99609375 C-37.35919548 -3.05205857 -17.58735814 -8.76911572 0 0 Z " fill="#050505" transform="translate(832.484375,296.45703125)"/>
<path d="M0 0 C5.05510556 0.44603873 7.40166738 2.64700824 11 6 C13.97839394 11.95678788 11.1317229 18.52387639 9.265625 24.42578125 C8.28306588 27.20060098 7.24266329 29.91115004 6.13671875 32.63671875 C-4.90228798 59.9565894 -12.26995127 87.79764482 -16 117 C-10.66348807 112.75080238 -6.81562294 108.44394217 -3 102.8125 C-2.48091064 102.06073486 -1.96182129 101.30896973 -1.42700195 100.53442383 C3.16953011 93.84236115 7.71111714 87.11460353 11.66015625 80.015625 C16.45313916 71.41227527 21.95656121 62.58621301 31 58 C37.29238866 57.27792261 41.78001327 58.35200927 47 62 C50.18597673 65.48466205 50.58527374 68.95926004 50.41015625 73.53515625 C49.09496311 81.43884076 44.28939068 88.20975644 38 93 C33.72402311 95.62623829 29.32483296 97.96227179 24.7421875 100.0078125 C22.73146561 100.9297675 22.73146561 100.9297675 21.8125 103.5625 C20.83594725 107.69406934 20.35677043 111.77508701 20 116 C33.69706895 111.75123458 43.39977227 101.19164578 53 91 C53.48243164 90.51370117 53.96486328 90.02740234 54.46191406 89.52636719 C56.86703 86.94547328 57.96033162 85.39965897 58.3125 81.8515625 C58.1578125 80.25441406 58.1578125 80.25441406 58 78.625 C57.76044136 72.24402901 58.72269946 68.73210211 63 64 C69.19656414 57.40365753 76.16700947 53.84985663 85.25 53.4375 C89.23451101 53.59505082 90.78093063 53.86518808 94.25 56 C96.67215003 60.15225719 96.69099528 62.23981027 96 67 C93.2298101 69.6951509 90.89437049 70.41495487 87.125 70.9375 C82.09861514 71.81359071 78.66214689 73.33785311 75 77 C74.27116709 82.05627834 75.6674047 84.58545102 78.5546875 88.50390625 C79.27011719 89.43009766 79.27011719 89.43009766 80 90.375 C80.71542969 91.33599609 80.71542969 91.33599609 81.4453125 92.31640625 C82.61751478 93.88715731 83.80707092 95.44493174 85 97 C85.80824219 96.77183594 86.61648438 96.54367187 87.44921875 96.30859375 C88.51785156 96.02113281 89.58648438 95.73367188 90.6875 95.4375 C91.74324219 95.14746094 92.79898438 94.85742188 93.88671875 94.55859375 C97.00695382 93.99875233 98.97693234 94.15309236 102 95 C102 97.25 102 97.25 101 100 C97.60770678 102.31223573 93.87606589 103.70797804 90 105 C89.87044922 106.01707031 89.87044922 106.01707031 89.73828125 107.0546875 C88.33186588 116.37057646 85.52669015 124.8736243 78 131 C71.9907766 135.1438849 66.60126313 138.31946454 59 137 C55.97608448 135.26092412 53.58251339 133.16502678 52 130 C51.63138843 125.57666112 51.51351946 123.01526373 53.4375 119 C58.77915779 112.74635186 64.67309137 107.74140015 72 104 C70.65515286 99.95838045 68.9494838 97.61321846 65.875 94.6875 C65.15054688 93.99011719 64.42609375 93.29273438 63.6796875 92.57421875 C63.12539063 92.05472656 62.57109375 91.53523438 62 91 C59.7730009 93.86991253 57.8713368 96.82640257 56 99.9375 C48.37532006 111.97901356 38.14999726 125.68348459 24 130 C19.63786773 130.59147556 17.70584415 130.37368219 13.8125 128.3125 C7.40479292 123.04394085 5.26902253 118.02242938 4 110 C3.59910156 110.67804688 3.19820312 111.35609375 2.78515625 112.0546875 C-1.98163386 119.85882006 -7.28318676 127.85545784 -15 133 C-21.97577855 133.66435986 -21.97577855 133.66435986 -25.3125 131.5 C-29.72331372 124.96546116 -30.44243345 118.91125655 -30.25 111.25 C-30.24484375 110.41339844 -30.2396875 109.57679688 -30.234375 108.71484375 C-30.18648993 104.96185158 -30.02043878 101.62981731 -29 98 C-30.216875 98.226875 -31.43375 98.45375 -32.6875 98.6875 C-35.67574191 99.0465114 -36.92087541 99.02989151 -39.8125 97.9375 C-43.27604685 94.86978708 -44.85828634 92.0610095 -45.1796875 87.38671875 C-45.18667553 84.91645011 -45.13160962 82.46646168 -45 80 C-46.73602559 82.30760669 -48.46376021 84.62074061 -50.1875 86.9375 C-50.67025391 87.57751953 -51.15300781 88.21753906 -51.65039062 88.87695312 C-57.93777404 97.35859116 -61.60712134 104.830726 -63.5625 115.25 C-65.73849505 126.78354267 -65.73849505 126.78354267 -70 131 C-74.81114769 130.55245138 -77.81456816 129.74756687 -81 126 C-81.4147743 122.95482159 -81.29352855 120.05269695 -81 117 C-81.556875 117.9075 -82.11375 118.815 -82.6875 119.75 C-84.96904655 122.95649785 -86.64271701 124.97001494 -90 127 C-94.15360383 127.59337198 -96.19875662 127.48074603 -99.8125 125.3125 C-103.6139746 121.29379828 -104.14834124 117.33020914 -105 112 C-105.88751953 113.04800781 -105.88751953 113.04800781 -106.79296875 114.1171875 C-107.97826172 115.48230469 -107.97826172 115.48230469 -109.1875 116.875 C-109.96480469 117.77992188 -110.74210937 118.68484375 -111.54296875 119.6171875 C-114.03621818 122.03512415 -115.68576649 123.07372795 -119 124 C-123.39136274 123.92158281 -125.39418274 123.49811642 -128.8125 120.6875 C-133.30133626 115.17264402 -133.59421791 110.94851583 -133 104 C-130.53430145 87.56948147 -120.52615177 72.67131776 -108 62 C-102.66420986 58.24165575 -97.48096143 56.96106725 -91 58 C-87.36532921 59.62400184 -86.22591304 60.66113044 -84 64 C-84 65.32 -84 66.64 -84 68 C-85.10794922 68.45826172 -85.10794922 68.45826172 -86.23828125 68.92578125 C-101.99569298 76.03363533 -112.88601753 90.02722078 -119 106 C-119 106.99 -119 107.98 -119 109 C-112.86571709 101.32631529 -106.87298465 93.60028266 -101.26220703 85.53271484 C-97.19891063 79.72727799 -97.19891063 79.72727799 -95 78 C-91.56459878 78.07309364 -89.52938586 78.66565104 -86.625 80.5 C-84.14719495 84.31200776 -84.41814972 87.57523162 -85 92 C-85.66921877 94.76556672 -86.44948522 97.47752612 -87.265625 100.203125 C-88.37385264 104.42382175 -88.72669481 108.65538997 -89 113 C-88.34 113 -87.68 113 -87 113 C-86.75636719 112.31292969 -86.51273438 111.62585938 -86.26171875 110.91796875 C-85.06257365 108.14471368 -83.59624969 105.73455421 -81.97900391 103.19091797 C-75.84778938 93.31784042 -73.22770413 82.92827937 -70.5078125 71.7109375 C-69.21003851 66.49137424 -67.88426401 61.88426401 -64 58 C-61.1875 57.5625 -61.1875 57.5625 -58 58 C-55.1875 60.4375 -55.1875 60.4375 -53 63 C-52.67 63.33 -52.34 63.66 -52 64 C-52.08963062 65.69141656 -52.24577676 67.37959602 -52.4375 69.0625 C-52.53933594 69.98160156 -52.64117188 70.90070313 -52.74609375 71.84765625 C-52.87177734 72.91306641 -52.87177734 72.91306641 -53 74 C-52.40832031 73.32453125 -51.81664062 72.6490625 -51.20703125 71.953125 C-50.02173828 70.61507812 -50.02173828 70.61507812 -48.8125 69.25 C-48.03519531 68.36828125 -47.25789062 67.4865625 -46.45703125 66.578125 C-40.52620001 60.35499524 -40.52620001 60.35499524 -36.8671875 59.50390625 C-33.98816427 59.5885834 -31.57049646 59.69692376 -29 61.0625 C-26.59251916 65.72699413 -28.01681785 70.38587988 -29.5 75.125 C-29.7784375 75.93195313 -30.056875 76.73890625 -30.34375 77.5703125 C-31.04012808 80.14856945 -31.11350911 82.34199504 -31 85 C-30.01 85 -29.02 85 -28 85 C-26.44575869 79.44240987 -24.96195579 73.87714729 -23.61254883 68.26586914 C-21.8502643 60.9793477 -19.71893837 53.92284979 -17.27734375 46.828125 C-15.92745986 42.85920067 -14.77458867 38.84308717 -13.625 34.8125 C-11.7300117 28.25398057 -9.65145598 21.77036464 -7.4375 15.3125 C-7.01621826 14.05626831 -7.01621826 14.05626831 -6.58642578 12.7746582 C-4.91685269 7.98373043 -3.01640595 4.08567896 0 0 Z " fill="#060606" transform="translate(621,305)"/>
<path d="M0 0 C0.97609222 0.10323578 1.95218445 0.20647156 2.95785522 0.31283569 C5.6875274 0.60822319 8.41413743 0.92275437 11.140625 1.24609375 C11.94323257 1.33364929 12.74584015 1.42120483 13.57276917 1.51141357 C18.36421982 2.11294119 22.25634914 3.06884914 25.75 6.5625 C25.9375 9 25.9375 9 25.75 11.5625 C23.75 13.5625 23.75 13.5625 20.35205078 13.71362305 C18.88283843 13.67785937 17.41388168 13.6305086 15.9453125 13.57421875 C14.75553299 13.54023735 14.75553299 13.54023735 13.54171753 13.50556946 C10.98574877 13.4299477 8.43050066 13.33994166 5.875 13.25 C4.2226829 13.20027824 2.57033892 13.15144123 0.91796875 13.10351562 C-5.6972539 12.90272935 -12.30992074 12.68666967 -18.91723633 12.29980469 C-34.00565332 11.41862215 -49.07736532 11.40561481 -64.1875 11.4375 C-65.60957838 11.43978332 -67.03165683 11.44202069 -68.45373535 11.44421387 C-78.38596259 11.46129872 -88.31793145 11.50487813 -98.25 11.5625 C-99.40920959 11.5687439 -100.56841919 11.57498779 -101.76275635 11.5814209 C-136.45364358 11.78419717 -171.06265728 13.36433317 -205.70410156 15.10253906 C-207.01112408 15.16811319 -207.01112408 15.16811319 -208.34455109 15.23501205 C-211.77632635 15.40735563 -215.20809796 15.57975636 -218.63980103 15.75353241 C-230.33711857 16.34496142 -242.03255547 16.8647959 -253.73989868 17.22094727 C-259.45965755 17.40609142 -265.12189993 17.78470499 -270.81790161 18.33740234 C-273.7267738 18.60662678 -276.62733508 18.75018138 -279.546875 18.84375 C-280.60777344 18.88113281 -281.66867187 18.91851562 -282.76171875 18.95703125 C-284.93618142 19.02785211 -287.11066094 19.09815737 -289.28515625 19.16796875 C-290.34089844 19.20535156 -291.39664063 19.24273437 -292.484375 19.28125 C-293.42506836 19.31154297 -294.36576172 19.34183594 -295.33496094 19.37304688 C-298.31246083 19.525634 -298.31246083 19.525634 -301.48434448 20.04762268 C-305.14333992 20.54791639 -308.72784431 20.81137318 -312.41552734 20.98999023 C-313.82696587 21.06164331 -315.23839318 21.13351763 -316.64981079 21.20558167 C-317.39075611 21.24242128 -318.13170143 21.2792609 -318.89509964 21.31721687 C-338.75066471 22.31501067 -358.55545092 23.81873081 -378.36975098 25.4229126 C-381.76842051 25.6970683 -385.16741058 25.96712707 -388.56641579 26.23708439 C-392.68241611 26.56413338 -396.79825252 26.89322169 -400.9140625 27.22265625 C-401.67441425 27.28339891 -402.43476601 27.34414158 -403.21815872 27.40672493 C-410.55902299 27.99463035 -417.89684782 28.58682123 -425.22024536 29.36758423 C-428.6521692 29.69714923 -432.05155834 29.81076432 -435.5 29.875 C-436.16773438 29.90400391 -436.83546875 29.93300781 -437.5234375 29.96289062 C-442.56872017 30.02719325 -445.42385997 28.80577405 -449.25 25.5625 C-450.4375 22.125 -450.4375 22.125 -450.25 18.5625 C-448.27748153 15.50169548 -446.63896399 13.95976637 -443.09207153 12.94529724 C-437.25493262 11.84462998 -431.47374238 11.07944437 -425.5546875 10.59765625 C-424.65664902 10.519814 -423.75861053 10.44197174 -422.83335876 10.36177063 C-419.93097961 10.11113962 -417.02802034 9.86808022 -414.125 9.625 C-411.08086069 9.36395875 -408.03689489 9.10095593 -404.99293518 8.83782959 C-402.96063129 8.66226601 -400.92827239 8.48733795 -398.89585876 8.31304932 C-392.95801594 7.80272735 -387.02270451 7.27233821 -381.08984375 6.70703125 C-380.39389099 6.64075027 -379.69793823 6.5744693 -378.980896 6.50617981 C-375.86371353 6.20815443 -372.746896 5.90663106 -369.63037109 5.60180664 C-349.12279675 3.63470584 -328.59076938 2.27031913 -308.01171875 1.34375 C-305.77257063 1.24006907 -303.5334352 1.13611374 -301.29431152 1.03190613 C-294.17566025 0.70234623 -287.05661767 0.38180232 -279.9375 0.0625 C-277.46603385 -0.04877539 -274.99456779 -0.16005267 -272.52310181 -0.27133179 C-258.13231816 -0.91793982 -243.74098033 -1.55108957 -229.34912109 -2.17327881 C-225.61369577 -2.33477582 -221.87833164 -2.49750077 -218.14306641 -2.66265869 C-145.83809185 -5.85930613 -72.06007455 -7.73340685 0 0 Z " fill="#060606" transform="translate(914.25,480.4375)"/>
<path d="M0 0 C5.8869558 3.43710463 10.57047567 8.90268494 12.515625 15.46875 C12.70557316 18.11964416 12.80176884 20.63564461 12.765625 23.28125 C12.75438599 24.35681152 12.75438599 24.35681152 12.74291992 25.45410156 C12.40120297 42.21541352 3.47291661 59.88849011 -8.484375 71.46875 C-11.33761937 72.89537219 -13.31892049 72.77908868 -16.484375 72.46875 C-19.18428162 70.66881226 -21.0262615 69.384977 -22.484375 66.46875 C-23.13283825 61.06228534 -21.31957598 57.98812183 -18.296875 53.71875 C-17.46377097 52.48424426 -16.63434318 51.24724972 -15.80859375 50.0078125 C-15.2060376 49.10530762 -15.2060376 49.10530762 -14.59130859 48.18457031 C-12.18678621 44.45740151 -10.29248354 40.51040438 -8.484375 36.46875 C-8.16597656 35.79585938 -7.84757812 35.12296875 -7.51953125 34.4296875 C-5.27798394 29.24417251 -4.71680479 24.08098414 -5.484375 18.46875 C-7.23889436 15.12175819 -7.23889436 15.12175819 -10.984375 14.53125 C-19.24415589 13.82924331 -26.10515934 18.43602544 -32.21484375 23.5078125 C-32.96378906 24.15492188 -33.71273437 24.80203125 -34.484375 25.46875 C-35.26425781 26.11585938 -36.04414063 26.76296875 -36.84765625 27.4296875 C-58.58414275 46.08077161 -76.64656407 73.61200546 -79.70751953 102.58056641 C-80.42037506 112.16947889 -79.85458136 122.18574815 -74.19921875 130.31640625 C-71.62399423 132.89163077 -68.94667002 133.82261192 -65.421875 134.09375 C-42.12831575 132.46861796 -20.05082607 109.87906846 -3.9375 94.7109375 C-1.84888197 92.80191402 0.14234711 91.00831174 2.515625 89.46875 C4.765625 89.78125 4.765625 89.78125 6.515625 90.46875 C5.0882302 102.42753329 -4.78561918 111.75838292 -12.484375 120.46875 C-13.15774902 121.24484619 -13.15774902 121.24484619 -13.84472656 122.03662109 C-26.16080662 136.2221866 -41.82272935 151.91424692 -61.45703125 153.74609375 C-71.99466835 154.0791417 -80.37490972 151.27358467 -88.484375 144.46875 C-93.5401878 139.17360879 -97.06486128 133.36254034 -99.484375 126.46875 C-99.70996094 125.83066406 -99.93554688 125.19257813 -100.16796875 124.53515625 C-106.6841789 101.48125415 -97.24085636 76.26389044 -86.171875 56.28125 C-78.99517666 43.75994109 -70.47971497 32.84327586 -60.484375 22.46875 C-59.83082031 21.75203125 -59.17726563 21.0353125 -58.50390625 20.296875 C-49.94829668 11.17575605 -39.18769086 3.85749345 -27.484375 -0.53125 C-26.51886719 -0.89476562 -25.55335938 -1.25828125 -24.55859375 -1.6328125 C-16.46336055 -3.99863669 -7.75524059 -3.17465989 0 0 Z " fill="#050505" transform="translate(426.484375,293.53125)"/>
<path d="M0 0 C5.17070433 3.40796422 7.85737103 7.98980987 9.75 13.8125 C10.06082996 16.5651653 10.22843196 19.00947729 10.1875 21.75 C10.17847656 22.48943848 10.16945313 23.22887695 10.16015625 23.99072266 C9.25376904 53.56789966 -10.11851388 88.71361704 -31.25 108.8125 C-36.98188625 113.26860871 -41.75448204 116.25660593 -49.25 116.16015625 C-52.7276979 115.55563454 -54.19480848 113.53260642 -56.25 110.8125 C-64.09609039 95.90492825 -59.05623971 72.93559547 -54.6328125 57.68457031 C-49.70435287 41.94848548 -41.56623636 26.65148412 -31.25 13.8125 C-30.59257813 12.95527344 -29.93515625 12.09804688 -29.2578125 11.21484375 C-22.06659839 2.61057006 -11.19093854 -4.08899677 0 0 Z " fill="#FCFCFD" transform="translate(824.25,310.1875)"/>
<path d="M0 0 C5.42915188 0.21716608 8.12230807 1.43675071 11.93359375 5.0390625 C13.9164667 8.68522448 13.4035543 12.47246281 12.37712097 16.35772705 C11.47012967 19.11121142 10.49521063 21.83080169 9.4921875 24.55078125 C9.12908478 25.56359665 8.76598206 26.57641205 8.39187622 27.61991882 C7.22995582 30.85462981 6.05307998 34.08364351 4.875 37.3125 C3.34790844 41.53644555 1.82653153 45.76244282 0.3046875 49.98828125 C-0.24919647 51.5206694 -0.24919647 51.5206694 -0.81427002 53.08401489 C-4.02991027 62.00633851 -7.06108568 70.9831699 -10 80 C-8.88266189 78.88266189 -7.83277082 77.69943181 -6.77734375 76.5234375 C8.69128393 59.33087161 8.69128393 59.33087161 15.75 58.625 C19.47978119 58.71348021 22.16847616 59.50280442 24.9296875 62.21875 C28.43954181 68.0599674 25.93453037 75.84844725 24.4375 82 C23.87790886 84.12628699 23.30185629 86.24744594 22.71972656 88.36767578 C21.54131535 92.67759088 20.39958855 96.99700682 19.26391602 101.31835938 C18.64113657 103.68738233 18.01167184 106.05466036 17.37475586 108.41992188 C16.07680705 113.33575556 14.89360639 118.05336166 14.48046875 123.12890625 C14 127 14 127 12.6496582 128.73803711 C11 130 11 130 8.125 130.0625 C4.93881478 128.97919702 2.93243336 127.90272108 0.90649414 125.16723633 C-3.03713484 115.73885106 0.92444259 104.13703221 3.9375 95 C4.67869887 92.66759183 5.41708311 90.33428692 6.15234375 88 C6.6472229 86.4840625 6.6472229 86.4840625 7.15209961 84.9375 C8.00893908 81.9690311 8.55254088 79.05465428 9 76 C-0.83013425 84.52908707 -8.06627956 95.78584418 -14.484375 106.99609375 C-15.06098877 108.00269043 -15.63760254 109.00928711 -16.23168945 110.04638672 C-17.35563509 112.03368089 -18.46148466 114.03133533 -19.54760742 116.03955078 C-20.3110144 117.39862549 -20.3110144 117.39862549 -21.08984375 118.78515625 C-21.53191162 119.59863525 -21.97397949 120.41211426 -22.42944336 121.25024414 C-24 123 -24 123 -26.57055664 123.33666992 C-29 123 -29 123 -30.78125 121.828125 C-34.43867896 116.34198155 -32.1929738 107.66297564 -31.015625 101.5546875 C-29.01953894 91.93302298 -26.69897689 82.38489924 -24.06640625 72.91796875 C-23.26725259 70.03698624 -22.5410598 67.14462971 -21.83984375 64.23828125 C-18.77026825 51.6947216 -14.99390412 39.44034155 -10.9375 27.1875 C-10.68210449 26.40855377 -10.42670898 25.62960754 -10.16357422 24.82705688 C-7.33544286 16.22962371 -4.43484268 7.93378063 0 0 Z " fill="#050605" transform="translate(461,307)"/>
<path d="M0 0 C1.36125 0.0309375 1.36125 0.0309375 2.75 0.0625 C7.16148663 1.90061943 9.07061929 5.89625539 10.93359375 10.11328125 C12.44257284 14.91302829 12.00437739 17.8764262 9.875 22.4375 C8.06420259 25.86087144 6.74002263 27.77586963 3 29 C-2.27405825 29.23579992 -6.72432374 28.82543758 -11.1875 25.9375 C-11.785625 25.298125 -12.38375 24.65875 -13 24 C-13.5775 24.928125 -14.155 25.85625 -14.75 26.8125 C-17.35144865 30.49788559 -19.11114358 32.63686665 -23.62109375 33.50390625 C-30.94456051 33.65626686 -30.94456051 33.65626686 -33.828125 31.86328125 C-36.04430912 29.43694173 -36.97540044 27.10957985 -37.6875 23.9375 C-36.7307924 19.84974936 -34.32869914 18.22967496 -31 16 C-30.175 15.401875 -29.35 14.80375 -28.5 14.1875 C-25.43034746 12.72941504 -23.36221322 12.63454204 -20 13 C-19.01 13.66 -18.02 14.32 -17 15 C-16.97873047 14.11248047 -16.97873047 14.11248047 -16.95703125 13.20703125 C-16.68766836 8.74434335 -16.46251397 6.56924796 -13.5625 3 C-8.99113179 -0.56789714 -5.61087477 -0.18540282 0 0 Z " fill="#040504" transform="translate(465,451)"/>
<path d="M0 0 C1.80051613 3.60103226 -0.56515575 7.46082901 -1.75683594 11.11889648 C-2.16708008 12.33778564 -2.57732422 13.5566748 -3 14.8125 C-3.41282227 16.04105713 -3.82564453 17.26961426 -4.25097656 18.53540039 C-11.87707261 40.69966216 -11.87707261 40.69966216 -20 46 C-20.99 45.67 -21.98 45.34 -23 45 C-24.32678003 29.07863966 -13.60866753 15.84034641 -3.91796875 4.21484375 C-2 2 -2 2 0 0 Z " fill="#F4F4F5" transform="translate(990,449)"/>
<path d="M0 0 C3.59391114 1.33488128 6.75490696 2.96022723 10 5 C9.21331482 6.62741744 8.4204759 8.25186131 7.625 9.875 C7.18414063 10.77992188 6.74328125 11.68484375 6.2890625 12.6171875 C5 15 5 15 3 17 C1.68 17 0.36 17 -1 17 C-3.22541672 12.54916655 -2.47279612 6.47748787 -1 1.875 C-0.67 1.25625 -0.34 0.6375 0 0 Z " fill="#F5F5F5" transform="translate(928,401)"/>
<path d="M0 0 C5.5952381 0.5952381 5.5952381 0.5952381 8 3 C8.32752234 5.71454956 8.1308425 8.25230759 8 11 C7 12 7 12 4.6875 12.375 C2 12 2 12 -0.375 9.875 C-2 7 -2 7 -1.8125 3.75 C-1 1 -1 1 0 0 Z " fill="#0F0F0F" transform="translate(264,360)"/>
<path d="M0 0 C0.99 0.33 1.98 0.66 3 1 C3 6.28 3 11.56 3 17 C1.35 16.67 -0.3 16.34 -2 16 C-4.50304378 12.24543433 -4.45280074 10.45254066 -4 6 C-2 2.5625 -2 2.5625 0 0 Z " fill="#F5F4F5" transform="translate(940,377)"/>
<path d="M0 0 C3 0.25 3 0.25 5 2.25 C5.36487512 5.09602594 5.40199375 6.6364306 3.8125 9.0625 C1.35092224 10.67525784 -0.11065736 10.6834014 -3 10.25 C-4.875 9.0625 -4.875 9.0625 -6 7.25 C-5.66963219 2.73497322 -4.81520347 0.40126696 0 0 Z " fill="#0D0D0D" transform="translate(353,461.75)"/>
<path d="M0 0 C-0.59531656 7.44145699 -3.19479367 11.57323258 -8.75 16.375 C-9.82718031 17.2575637 -10.9084143 18.13531695 -12 19 C-12.66 18.67 -13.32 18.34 -14 18 C-12.94912082 15.93155482 -11.88374228 13.87047291 -10.8125 11.8125 C-10.22082031 10.66394531 -9.62914062 9.51539063 -9.01953125 8.33203125 C-3.96951934 0 -3.96951934 0 0 0 Z " fill="#EBEAEC" transform="translate(1064,376)"/>
<path d="M0 0 C0.64817885 4.32119233 -0.12564551 6.63239631 -2.625 10.0625 C-5.43225879 13.54483769 -8.44861855 16.29418556 -12 19 C-12.33 18.34 -12.66 17.68 -13 17 C-11.7421875 14.1015625 -11.7421875 14.1015625 -9.875 10.625 C-9.27429688 9.48289062 -8.67359375 8.34078125 -8.0546875 7.1640625 C-3.40246914 0 -3.40246914 0 0 0 Z " fill="#EBEAEB" transform="translate(659,376)"/>
<path d="M0 0 C4.55555556 0.55555556 4.55555556 0.55555556 6 2 C6.1875 4.4375 6.1875 4.4375 6 7 C5.34 7.66 4.68 8.32 4 9 C-0.55555556 8.44444444 -0.55555556 8.44444444 -2 7 C-2.1875 4.5625 -2.1875 4.5625 -2 2 C-1.34 1.34 -0.68 0.68 0 0 Z " fill="#0D0E0D" transform="translate(337,441)"/>
<path d="M0 0 C1.67542976 0.28604898 3.34385343 0.61781233 5 1 C5.625 2.875 5.625 2.875 6 5 C5.34 5.66 4.68 6.32 4 7 C1.375 6.625 1.375 6.625 -1 6 C-1.042721 4.33388095 -1.04063832 2.66617115 -1 1 C-0.67 0.67 -0.34 0.34 0 0 Z " fill="#141414" transform="translate(402,492)"/>
<path d="M0 0 C1.67542976 0.28604898 3.34385343 0.61781233 5 1 C5.625 2.875 5.625 2.875 6 5 C5.34 5.66 4.68 6.32 4 7 C1.375 6.625 1.375 6.625 -1 6 C-1.042721 4.33388095 -1.04063832 2.66617115 -1 1 C-0.67 0.67 -0.34 0.34 0 0 Z " fill="#181817" transform="translate(326,261)"/>
<path d="M0 0 C0.66 0.33 1.32 0.66 2 1 C-2.24242424 7.81818182 -2.24242424 7.81818182 -6 10 C-6.99 10 -7.98 10 -9 10 C-7.61811547 6.78956118 -6.07578097 4.95063635 -3.375 2.75 C-2.74335937 2.22921875 -2.11171875 1.7084375 -1.4609375 1.171875 C-0.73777344 0.59179688 -0.73777344 0.59179688 0 0 Z " fill="#EAE9EA" transform="translate(693,420)"/>
<path d="M0 0 C1.65 0.33 3.3 0.66 5 1 C4.67 2.65 4.34 4.3 4 6 C2.35 5.67 0.7 5.34 -1 5 C-0.67 3.35 -0.34 1.7 0 0 Z " fill="#181819" transform="translate(300,435)"/>
<path d="M0 0 C1.65 0 3.3 0 5 0 C5.33 1.65 5.66 3.3 6 5 C4.125 5.625 4.125 5.625 2 6 C1.34 5.34 0.68 4.68 0 4 C0 2.68 0 1.36 0 0 Z " fill="#0C0B0D" transform="translate(401,474)"/>
<path d="M0 0 C1.32 0.66 2.64 1.32 4 2 C3.67 3.32 3.34 4.64 3 6 C1.35 5.67 -0.3 5.34 -2 5 C-1.125 1.125 -1.125 1.125 0 0 Z " fill="#212022" transform="translate(395,479)"/>
<path d="M0 0 C1.98 0.495 1.98 0.495 4 1 C3.67 2.32 3.34 3.64 3 5 C1.68 5 0.36 5 -1 5 C-0.67 3.35 -0.34 1.7 0 0 Z " fill="#2D2C2D" transform="translate(365,508)"/>
<path d="M0 0 C1.32 0 2.64 0 4 0 C3.67 1.65 3.34 3.3 3 5 C1.68 4.67 0.36 4.34 -1 4 C-0.67 2.68 -0.34 1.36 0 0 Z " fill="#0B0B0B" transform="translate(220,369)"/>
<path d="M0 0 C1.98 0.495 1.98 0.495 4 1 C3.67 2.32 3.34 3.64 3 5 C1.68 4.67 0.36 4.34 -1 4 C-0.67 2.68 -0.34 1.36 0 0 Z " fill="#191818" transform="translate(233,380)"/>
<path d="M0 0 C1.98 0.495 1.98 0.495 4 1 C3.67 2.32 3.34 3.64 3 5 C1.68 4.67 0.36 4.34 -1 4 C-0.67 2.68 -0.34 1.36 0 0 Z " fill="#222120" transform="translate(256,308)"/>
<path d="M0 0 C0.99 0 1.98 0 3 0 C3 1.65 3 3.3 3 5 C1.68 4.67 0.36 4.34 -1 4 C-0.67 2.68 -0.34 1.36 0 0 Z " fill="#2B2A2B" transform="translate(269,491)"/>
<path d="M0 0 C1.32 0 2.64 0 4 0 C3.67 1.65 3.34 3.3 3 5 C2.01 4.67 1.02 4.34 0 4 C0 2.68 0 1.36 0 0 Z " fill="#141415" transform="translate(425,463)"/>
</svg>
